<?xml version="1.0" encoding="utf-8"?>
<!-- Generator: Adobe Illustrator 27.3.1, SVG Export Plug-In . SVG Version: 6.00 Build 0)  -->
<svg version="1.1" id="Layer_1" xmlns="http://www.w3.org/2000/svg" xmlns:xlink="http://www.w3.org/1999/xlink" x="0px" y="0px"
	 viewBox="0 0 375 221" style="enable-background:new 0 0 375 221;" xml:space="preserve">
<style type="text/css">
	.st0{fill:#E2BA34;}
	.st1{clip-path:url(#SVGID_00000049940872717517920360000001674398189433074100_);fill:#FFFFFF;}
	.st2{clip-path:url(#SVGID_00000049940872717517920360000001674398189433074100_);fill:#151F28;}
	.st3{clip-path:url(#SVGID_00000049940872717517920360000001674398189433074100_);fill:#584910;}
	.st4{opacity:0;}
	.st5{fill:#FFFFFF;}
</style>
<rect x="-4.25" y="-9" class="st0" width="383.5" height="246"/>
<g>
	<g>
		<g>
			<defs>
				<rect id="SVGID_1_" x="103.33" y="22.18" width="168.34" height="137.28"/>
			</defs>
			<clipPath id="SVGID_00000031904308973787916560000012795308148090424216_">
				<use xlink:href="#SVGID_1_"  style="overflow:visible;"/>
			</clipPath>
			<path style="clip-path:url(#SVGID_00000031904308973787916560000012795308148090424216_);fill:#FFFFFF;" d="M132.64,98.2
				c-1.46,2.18-1.96,0.55-2.33-1.6l-5.39-8.59l2.04,0.44v-0.58l-2.04-1.02l-2.62-10.05l-1.75,0.44l-0.15-2.48l-0.58-5.24
				c-1.32-14.94-16.3-1.26-11.65,1.46c1.24,2.86,1.53,5.73,6.41,8.59c2.2,3.64,2.34,8.75,8.01,9.91l1.31,0.73
				c-1.02,3.89,0.77,6.94,5.24,9.18c0.86,1.94,1.55,3.88-0.29,5.83l1.17,0.58l-1.17,1.17l-0.15,3.06l1.02,1.46l-0.29,1.17l0.73,1.31
				l-0.58,1.75l0.29,1.46l5.1,2.91l-1.17-2.04l4.66,2.48l-2.48-0.44l2.04,2.19c-2.1,3.89-2.72,7.59-0.44,10.93l-0.29,2.91
				l-0.87-0.73c-2.81,5.95,1.09,13.73,4.08,21.27l4.08,0.15l2.77,2.19h4.52l5.68-3.64l4.52-1.6l3.35,1.46l2.48-0.44v1.02l3.93-0.29
				l-2.77-0.73l0.73-1.02l2.33,0.58l2.48-0.73l0.73-2.33l-0.58-1.02l0.44-1.02h3.64l-1.6,0.73v0.87h-1.02l0.87,0.73h-1.6l-0.87,2.19
				h1.46l0.29,2.33h1.89l0.15-2.19l3.35-2.04l0.44,1.89l4.52-3.06l-1.17-0.87l1.46-1.17l-0.87-1.17h-1.46l-0.15,1.31l-8.16-7.43
				l-0.44-1.6v-2.91l0.29-2.19l-3.35-3.2l-1.89-3.93l0.45-2.33l4.79-0.15v-0.73l0.6,0.86l0.71,0.02l2.04,0.31l2.62-4.53l0.73-1.17
				l4.55-5.69l0.4-2.62l-3.06-3.5v-3.79h-1.02l-0.73-1.02l-3.64,0.73l0.29,1.31l-4.08,3.2l-2.48,2.33l-1.75,1.75l-0.29,2.48
				l-1.89,2.04l1.31,1.89v1.75l-1.17,2.19l1.17,0.44l0.15,1.6l-1.75,3.35l-1.6,4.66l-1.46,3.64l-1.02,2.77
				c-0.09-3.63-2.13-5.7-4.95-7.14c-6.73,0.14-5.57-4.74-6.7-8.16l-3.5-3.64l-2.77-3.06l-0.15-1.6l2.91-5.24l3.35-1.31l2.91,1.75
				l2.77-0.44l3.5-1.89l1.31-2.33h1.89l2.04,1.89l2.33,0.87l1.75-1.6l1.17,0.29l0.44,3.35l1.46-0.58v-2.91l1.31-1.17l3.5-2.48
				l3.64-0.58c4.69-3.11,3.7-6.22,3.06-9.32l-2.33-6.99v-2.33l2.04-0.87l0.44-1.75l-0.44-1.02l0.73-2.04l1.17-2.04l-5.68-17.19
				l-0.15,3.64l-1.31,0.29l-1.46,6.7l-0.87,5.54v4.37l1.46,2.77l2.19,1.02l1.75,0.73l0.15,2.19l-1.17-0.58l-3.64-1.6l-1.02,0.87
				l-1.46-0.29l-0.87-2.19h-1.89l-4.52,0.29h-2.48l-0.87-3.5l2.19-3.64c2.73-3.3,2.56-6.6,2.04-9.91
				c-3.15-5.58-0.28-11.17,0.58-16.75l1.17-4.95l-0.15-3.35l-1.17-3.35l1.46-0.73l0.15-2.04L189.16,36l-1.75,1.17l2.91,3.79
				l1.17,7.28l-0.29,3.35l-0.87,0.15l0.87,1.46l0.58,3.93l1.17,2.19l0.87-3.79v-2.04l4.08-7.72l-2.91-2.33l0.58-0.87l0.73-0.15
				l-1.6-0.73l0.29-0.73l1.17-0.73l-0.87-2.04l-1.17-1.75l-2.33-1.17L189.15,36l-16.97-0.75l-3.42-7.26
				c-8.12-5.82-8.19-0.53-9.48,3.1v4.33l-0.21,7l1.24,11.54l0.62,13.18c-0.49,4.39-3.27,8.79,4.53,13.18l1.24,3.5l-6.59-2.27
				l-9.48,6.18l-0.82,1.24l-0.62-2.47v-6.59l1.65-1.44c2.67-3.21,4.57-6.62,2.88-10.92l-1.85-3.3v-7c1.88-3.74-0.45-5.68-2.27-7.83
				l0.83-6.18c0.1-8.01-7.26-12.66-9.48-4.94c-1.03,2.03-2.18,4.03,0,6.59c-0.06,5.22-1.77,10.44,0.62,15.66V69l3.3,9.68
				c1.01,2.82,2.81,5,1.24,9.89l0.62,7l-1.24,2.68l-1.85-1.03l-1.85-1.65l-1.65-0.41l-7.48,3.05L132.64,98.2z"/>
			<path style="clip-path:url(#SVGID_00000031904308973787916560000012795308148090424216_);fill:#151F28;" d="M242.03,98.56
				c1.46,2.18,1.96,0.55,2.33-1.6l5.39-8.59l-2.04,0.44v-0.58l2.04-1.02l2.62-10.05l1.75,0.44l0.15-2.48l0.58-5.24
				c1.32-14.94,16.3-1.26,11.65,1.46c-1.24,2.86-1.53,5.73-6.41,8.59c-2.2,3.64-2.34,8.75-8.01,9.91l-1.31,0.73
				c1.02,3.89-0.77,6.94-5.24,9.18c-0.86,1.94-1.55,3.88,0.29,5.83l-1.17,0.58l1.17,1.17l0.15,3.06l-1.02,1.46l0.29,1.17l-0.73,1.31
				l0.58,1.75l-0.29,1.46l-5.1,2.91l1.17-2.04l-4.66,2.48l2.48-0.44l-2.04,2.19c2.1,3.89,2.72,7.59,0.44,10.93l0.29,2.91l0.87-0.73
				c2.81,5.95-1.09,13.73-4.08,21.27l-4.08,0.15l-2.77,2.19h-4.52l-5.68-3.64l-4.52-1.6l-3.35,1.46l-2.48-0.44v1.02l-3.93-0.29
				l2.77-0.73l-0.73-1.02l-2.33,0.58l-2.48-0.73l-0.73-2.33l0.58-1.02l-0.44-1.02h-3.64l1.6,0.73v0.87h1.02l-0.87,0.73h1.6
				l0.87,2.19h-1.46l-0.29,2.33h-1.89l-0.15-2.19l-3.35-2.04l-0.44,1.89l-4.52-3.06l1.17-0.87l-1.46-1.17l0.87-1.17h1.46l0.15,1.31
				l8.16-7.43l0.44-1.6v-2.91l-0.29-2.19l3.35-3.2l1.89-3.93v-2.33l-5.24-0.15v-0.73h-1.46l0.15,0.87l-1.46-0.15l-3.2-4.08
				l-0.73-1.17l-4.37-6.41l-0.58-1.89l3.06-3.5v-3.79h1.02l0.73-1.02l3.64,0.73l-0.29,1.31l4.08,3.2l2.48,2.33l1.75,1.75l0.29,2.48
				l1.89,2.04l-1.31,1.89v1.75l1.17,2.19l-1.17,0.44l-0.15,1.6l1.75,3.35l1.6,4.66l1.46,3.64l1.02,2.77
				c0.09-3.63,2.13-5.7,4.95-7.14c6.73,0.14,5.57-4.74,6.7-8.16l3.5-3.64l2.77-3.06l0.15-1.6l-2.91-5.24l-3.35-1.31l-2.91,1.75
				l-2.77-0.44l-3.5-1.89l-1.31-2.33h-1.89l-2.04,1.89l-2.33,0.87l-1.75-1.6l-1.17,0.29l-0.44,3.35l-1.46-0.58v-2.91l-1.31-1.17
				l-3.5-2.48l-3.64-0.58c-4.69-3.11-3.7-6.22-3.06-9.32l2.33-6.99v-2.33l-2.04-0.87l-0.44-1.75l0.44-1.02l-0.73-2.04l-1.17-2.04
				l5.68-17.19l0.15,3.64l1.31,0.29l1.46,6.7l0.87,5.54v4.37l-1.46,2.77l-2.19,1.02l-1.75,0.73l-0.15,2.19l1.17-0.58l3.64-1.6
				l1.02,0.87l1.46-0.29l0.87-2.19h1.89l4.52,0.29h2.48l0.87-3.5l-2.19-3.64c-2.73-3.3-2.56-6.6-2.04-9.91
				c3.15-5.58,0.28-11.17-0.58-16.75l-1.17-4.95l0.15-3.35l1.17-3.35l-1.46-0.73l-0.15-2.04l-17.04,0.73l1.75,1.17l-2.91,3.79
				l-1.17,7.28l0.29,3.35l0.87,0.15l-0.87,1.46l-0.58,3.93l-1.17,2.19l-0.87-3.79v-2.04l-4.08-7.72l2.91-2.33l-0.58-0.87l-0.73-0.15
				l1.6-0.73l-0.29-0.73l-1.17-0.73l0.87-2.04l1.17-1.75l2.33-1.17l2.63,0.73l16.97-0.75l3.42-7.26c8.11-5.83,8.2-0.54,9.48,3.09
				v4.33l0.21,7l-1.24,11.54l-0.62,13.18c0.49,4.39,3.27,8.79-4.53,13.18l-1.24,3.5l6.59-2.27l9.48,6.18l0.82,1.24l0.62-2.47v-6.59
				l-1.65-1.44c-2.67-3.21-4.57-6.62-2.88-10.92l1.85-3.3v-7c-1.88-3.74,0.45-5.68,2.27-7.83l-0.82-6.18
				c-0.1-8.01,7.26-12.66,9.48-4.94c1.03,2.03,2.18,4.03,0,6.59c0.06,5.22,1.77,10.44-0.62,15.66v8.45l-3.3,9.68
				c-1.01,2.82-2.81,5-1.24,9.89l-0.62,7l1.24,2.68l1.85-1.03l1.85-1.65l1.65-0.41L242.03,98.56L242.03,98.56z"/>
			<polygon style="clip-path:url(#SVGID_00000031904308973787916560000012795308148090424216_);fill:#584910;" points="
				187.49,113.36 179.19,125.08 177.8,125.08 176.27,123.99 175.98,124.94 171.03,125.01 170.88,127.63 172.92,131.78 176.05,134.7 
				176.05,136.37 175.84,136.95 175.98,140.01 176.05,141.32 177.51,142.34 184.43,148.75 184.58,147.66 185.89,147.66 
				186.91,148.83 185.81,149.77 188.14,151.08 189.46,149.99 187.93,148.9 188.65,148.1 189.75,148.03 190.33,149.05 198.34,142.2 
				199.14,140.01 198.78,135.06 201.55,132.51 203.8,128.14 203.88,125.45 198.71,125.3 198.49,124.43 197.18,124.5 196.96,125.45 
				195.72,125.3 187.49,113.36 			"/>
			<polygon style="clip-path:url(#SVGID_00000031904308973787916560000012795308148090424216_);fill:#151F28;" points="
				163.09,110.59 160.83,110.59 160.54,111.24 159.96,111.9 161.78,112.77 162.36,113.79 165.13,113.72 165.13,112.84 163.89,111.9 
				163.38,111.39 163.09,110.59 			"/>
			<polygon style="clip-path:url(#SVGID_00000031904308973787916560000012795308148090424216_);fill:#FFFFFF;" points="
				211.49,110.08 213.75,110.08 214.04,110.73 214.62,111.39 212.8,112.26 212.22,113.28 209.45,113.21 209.45,112.34 
				210.69,111.39 211.2,110.88 211.49,110.08 			"/>
			<path style="clip-path:url(#SVGID_00000031904308973787916560000012795308148090424216_);fill:#584910;" d="M187.4,76.16
				c-2.22-5.41-3.91-11.09-5.66-16.49l1.06-2.21l0.64-3.97l0.88-1.34l-0.41-0.26c-2.51,1.67-1.46-11.96,3.14-14.32l0.52-0.36
				l2.88,3.86c0.7,3.67,2.87,7.91,0.79,10.69l-0.79,0.13l0.77,1.39l0.8,4.18l0.9,1.74C191.34,64.77,189.58,70.6,187.4,76.16
				L187.4,76.16z"/>
			<path style="clip-path:url(#SVGID_00000031904308973787916560000012795308148090424216_);fill:#584910;" d="M227.27,96.74
				l-2.32,1.24l-1.8,1.18l-1.18,0.88l-0.67,0.93l-0.21,3.76l-1.65,0.36l-1.8,0.05l-0.88-0.41l-1.24-1.08l0.1,1.18l0.21,1.13
				l1.91,0.62l0.15,0.77c0,0-1.18,0.72-1.39,0.72s-2.16,0-2.42-0.05s-2.47-0.41-2.47-0.41s-0.41-2.32-0.21-2.47
				c0.21-0.15,1.18-1.8,1.18-1.8l1.18-0.62l-0.57-2.47l0.98-1.44l0.82-0.67l0.72,0.05l0.05-0.88c0,0,0.21-1.34,0.46-1.49
				c0.26-0.15,2.16-1.49,2.37-1.65c0.21-0.15,2.01-0.82,2.37-1.03c0.36-0.21,1.49-0.77,2.06-0.72c0.57,0.05,2.94,0.98,2.94,0.98
				l1.34,1.96L227.27,96.74L227.27,96.74z"/>
			<path style="clip-path:url(#SVGID_00000031904308973787916560000012795308148090424216_);fill:#FFFFFF;" d="M228.5,96.74h-1.03
				l-5.05,2.83l-1.08,1.34l-0.31,3.81l-1.8,0.36h-1.75l-1.29-0.82l-0.57-0.46l0.15,2.16l2.11,0.67l-0.05,0.67l-1.13,0.72l-2.83,0.05
				l-2.27-0.67l1.39,2.16c0,0,1.34,0.98,1.65,1.08c0.31,0.1,1.85,0.36,1.85,0.36l0.72,0.41l0.82,0.31l2.11-1.49l1.39-0.31l1.55-1.6
				l1.65-1.96c0,0,0.15-1.55,0.46-1.8c0.31-0.26,1.13-0.77,1.13-0.77l0.52-1.8l1.08-1.91l0.46-0.41L228.5,96.74L228.5,96.74z"/>
			<path style="clip-path:url(#SVGID_00000031904308973787916560000012795308148090424216_);fill:#584910;" d="M147.15,96.52
				l2.32,1.24l1.8,1.18l1.18,0.88l0.67,0.93l0.21,3.76l1.65,0.36l1.8,0.05l0.88-0.41l1.24-1.08l-0.1,1.18l-0.21,1.13l-1.91,0.62
				l-0.15,0.77c0,0,1.18,0.72,1.39,0.72c0.21,0,2.16,0,2.42-0.05c0.26-0.05,2.47-0.41,2.47-0.41s0.41-2.32,0.21-2.47
				c-0.21-0.15-1.18-1.8-1.18-1.8l-1.18-0.62l0.57-2.47l-0.98-1.44l-0.82-0.67l-0.72,0.05l-0.05-0.88c0,0-0.21-1.34-0.46-1.49
				c-0.26-0.15-2.16-1.49-2.37-1.65c-0.21-0.15-2.01-0.82-2.37-1.03c-0.36-0.21-1.49-0.77-2.06-0.72c-0.57,0.05-2.94,0.98-2.94,0.98
				l-1.34,1.96L147.15,96.52L147.15,96.52z"/>
			<path style="clip-path:url(#SVGID_00000031904308973787916560000012795308148090424216_);fill:#151F28;" d="M145.92,96.52h1.03
				l5.05,2.83l1.08,1.34l0.31,3.81l1.8,0.36h1.75l1.29-0.82l0.57-0.46l-0.15,2.16l-2.11,0.67l0.05,0.67l1.13,0.72l2.83,0.05
				l2.27-0.67l-1.39,2.16c0,0-1.34,0.98-1.65,1.08c-0.31,0.1-1.85,0.36-1.85,0.36l-0.72,0.41l-0.82,0.31l-2.11-1.49l-1.39-0.31
				l-1.55-1.6l-1.65-1.96c0,0-0.15-1.55-0.46-1.8c-0.31-0.26-1.13-0.77-1.13-0.77l-0.52-1.8l-1.08-1.91l-0.46-0.41L145.92,96.52
				L145.92,96.52z"/>
		</g>
		<rect x="103.33" y="22.18" class="st4" width="168.02" height="137.17"/>
	</g>
	<g>
		<path class="st5" d="M76.49,174.48h5.07v9.9h10.3v-9.9h5.06v24h-5.06v-9.91h-10.3v9.91h-5.07V174.48z"/>
		<path class="st5" d="M99.81,198.48l8.29-24h6.54l8.27,24h-5.44l-1.78-5.47h-8.66l-1.78,5.47H99.81z M114.41,189.04l-2.95-9.08
			h-0.19l-2.95,9.08H114.41z"/>
		<path class="st5" d="M145.86,198.48h-4.38l-10.44-15.11h-0.18v15.11h-5.07v-24h4.45l10.36,15.09h0.21v-15.09h5.05V198.48z"/>
		<path class="st5" d="M150.05,198.48v-24h8.58c7.24,0,11.67,4.5,11.67,11.98c0,7.5-4.43,12.02-11.74,12.02H150.05z M158.34,194.13
			c4.51,0,6.89-2.32,6.89-7.68c0-5.33-2.38-7.63-6.88-7.63h-3.23v15.3H158.34z"/>
		<path class="st5" d="M181.7,174.48h9.47c5.45,0,8.6,3.36,8.6,8.13c0,4.79-3.21,8.09-8.73,8.09h-4.27v7.78h-5.07V174.48z
			 M190.22,186.63c2.91,0,4.32-1.64,4.32-4.02c0-2.39-1.42-3.98-4.35-3.98h-3.42v8H190.22z"/>
		<path class="st5" d="M203.07,174.48h9.47c5.45,0,8.6,3.07,8.6,7.84c0,3.28-1.51,5.66-4.24,6.83l5.1,9.33h-5.6l-4.55-8.51h-3.7
			v8.51h-5.07V174.48z M211.59,185.89c2.91,0,4.32-1.2,4.32-3.57c0-2.39-1.42-3.69-4.35-3.69h-3.42v7.27H211.59z"/>
		<path class="st5" d="M229.8,198.48h-5.07v-24h5.07V198.48z"/>
		<path class="st5" d="M254.06,198.48h-4.38l-10.44-15.11h-0.18v15.11h-5.07v-24h4.45l10.36,15.09h0.21v-15.09h5.05V198.48z"/>
		<path class="st5" d="M257.33,174.48h19.71v4.18h-7.35v19.82h-5.02v-19.82h-7.35V174.48z"/>
		<path class="st5" d="M289.22,178.39c-2.48,0-3.86,1.14-3.86,2.68c-0.04,1.72,1.71,2.5,3.8,2.98l2.16,0.52
			c4.17,0.94,7.18,3.06,7.2,7.05c-0.01,4.39-3.46,7.2-9.32,7.2c-5.82,0-9.54-2.68-9.67-7.88h4.91c0.16,2.4,2.06,3.62,4.7,3.62
			c2.58,0,4.24-1.2,4.25-2.95c-0.01-1.62-1.46-2.37-4.08-3l-2.61-0.66c-4.05-0.97-6.55-3-6.54-6.54c-0.02-4.36,3.83-7.27,9.09-7.27
			c5.34,0,8.86,2.95,8.93,7.23h-4.86C293.13,179.49,291.64,178.39,289.22,178.39z"/>
	</g>
</g>
</svg>
